<svg width="32" height="32" viewBox="0 0 32 32" xmlns="http://www.w3.org/2000/svg">
  <defs>
    <linearGradient id="heartGradient" x1="0%" y1="0%" x2="100%" y2="100%">
      <stop offset="0%" style="stop-color:#00D4FF;stop-opacity:1" />
      <stop offset="100%" style="stop-color:#0099CC;stop-opacity:1" />
    </linearGradient>
    <linearGradient id="arrowGradient" x1="0%" y1="0%" x2="100%" y2="100%">
      <stop offset="0%" style="stop-color:#00FFFF;stop-opacity:1" />
      <stop offset="100%" style="stop-color:#00CCDD;stop-opacity:1" />
    </linearGradient>
  </defs>
  
  <!-- Heart shape -->
  <path d="M16 25.6 C9.6 20.8, 4.8 16, 4.8 11.2 C4.8 8, 8 4.8, 11.2 4.8 C13.44 4.8, 15.04 5.76, 16 7.36 C16.96 5.76, 18.56 4.8, 20.8 4.8 C24 4.8, 27.2 8, 27.2 11.2 C27.2 16, 22.4 20.8, 16 25.6 Z" 
        fill="url(#heartGradient)" 
        stroke="#0088BB" 
        stroke-width="0.5"/>
  
  <!-- Heartbeat line -->
  <path d="M6.4 14.4 L9.6 14.4 L11.2 11.2 L12.8 17.6 L14.4 8 L16 20.8 L17.6 11.2 L19.2 14.4 L25.6 14.4" 
        fill="none" 
        stroke="#00FFFF" 
        stroke-width="1" 
        stroke-linecap="round"/>
  
  <!-- Upward arrow -->
  <path d="M16 3.2 L14.4 6.4 L15.36 6.4 L15.36 9.6 L16.64 9.6 L16.64 6.4 L17.6 6.4 Z" 
        fill="url(#arrowGradient)" 
        stroke="#00AACC" 
        stroke-width="0.2"/>
</svg>
