<svg width="100" height="100" viewBox="0 0 100 100" xmlns="http://www.w3.org/2000/svg">
  <defs>
    <linearGradient id="heartGradient" x1="0%" y1="0%" x2="100%" y2="100%">
      <stop offset="0%" style="stop-color:#00D4FF;stop-opacity:1" />
      <stop offset="100%" style="stop-color:#0099CC;stop-opacity:1" />
    </linearGradient>
    <linearGradient id="arrowGradient" x1="0%" y1="0%" x2="100%" y2="100%">
      <stop offset="0%" style="stop-color:#00FFFF;stop-opacity:1" />
      <stop offset="100%" style="stop-color:#00CCDD;stop-opacity:1" />
    </linearGradient>
  </defs>
  
  <!-- Heart shape -->
  <path d="M50 80 C30 65, 15 50, 15 35 C15 25, 25 15, 35 15 C42 15, 47 18, 50 23 C53 18, 58 15, 65 15 C75 15, 85 25, 85 35 C85 50, 70 65, 50 80 Z" 
        fill="url(#heartGradient)" 
        stroke="#0088BB" 
        stroke-width="1"/>
  
  <!-- Heartbeat line -->
  <path d="M20 45 L30 45 L35 35 L40 55 L45 25 L50 65 L55 35 L60 45 L80 45" 
        fill="none" 
        stroke="#00FFFF" 
        stroke-width="2" 
        stroke-linecap="round"/>
  
  <!-- Upward arrow -->
  <path d="M50 10 L45 20 L48 20 L48 30 L52 30 L52 20 L55 20 Z" 
        fill="url(#arrowGradient)" 
        stroke="#00AACC" 
        stroke-width="0.5"/>
</svg>
